<?xml version="1.0" encoding="UTF-8" standalone="no"?>
<svg
        width="247.8"
        height="66.082741"
        viewBox="0 0 370 98.670754"
        class="looka-1j8o68f"
        version="1.1"
        id="svg571"
        sodipodi:docname="logo.svg"
        inkscape:export-filename="logo.svg"
        inkscape:export-xdpi="96"
        inkscape:export-ydpi="96"
        xmlns:inkscape="http://www.inkscape.org/namespaces/inkscape"
        xmlns:sodipodi="http://sodipodi.sourceforge.net/DTD/sodipodi-0.dtd"
        xmlns="http://www.w3.org/2000/svg"
>
  <sodipodi:namedview
     id="namedview573"
     pagecolor="#ffffff"
     bordercolor="#000000"
     borderopacity="0.25"
     inkscape:showpageshadow="2"
     inkscape:pageopacity="0.0"
     inkscape:pagecheckerboard="0"
     inkscape:deskcolor="#d1d1d1"
     showgrid="false" />
  <defs
     id="SvgjsDefs4999" />
  <g
     id="SvgjsG5000"
     featurekey="symbolFeature-0"
     transform="matrix(1.0224949,0,0,1.0224949,-1.1247444,-1.9427402)"
     fill="#ffffff"
     style="fill:#f9f9f9">
    <rect
       x="47.400002"
       y="1.9"
       width="5.0999999"
       height="5.0999999"
       id="rect529"
       style="fill:#f9f9f9" />
    <rect
       x="47.400002"
       y="93.300003"
       width="5.0999999"
       height="5.0999999"
       id="rect531"
       style="fill:#f9f9f9" />
    <rect
       x="13.9"
       y="78.699997"
       width="5.0999999"
       height="5.0999999"
       id="rect533"
       style="fill:#f9f9f9" />
    <rect
       x="79.5"
       y="78.699997"
       width="5.0999999"
       height="5.0999999"
       id="rect535"
       style="fill:#f9f9f9" />
    <rect
       x="13.9"
       y="15.9"
       width="5.0999999"
       height="5.0999999"
       id="rect537"
       style="fill:#f9f9f9" />
    <rect
       x="79.5"
       y="15.9"
       width="5.0999999"
       height="5.0999999"
       id="rect539"
       style="fill:#f9f9f9" />
    <rect
       x="1.1"
       y="47.200001"
       width="5.0999999"
       height="5.0999999"
       id="rect541"
       style="fill:#f9f9f9" />
    <rect
       x="93.800003"
       y="47.200001"
       width="5.0999999"
       height="5.0999999"
       id="rect543"
       style="fill:#f9f9f9" />
    <path
       d="M 10.4,24.5 C 6.6,30.3 4.2,36.7 3.3,43.6 l -0.1,0.6 h 3 L 6.3,43.7 C 7.3,37 9.8,30.6 13.6,25 l 0.6,-0.8 h -3.5 z"
       id="path545"
       style="fill:#f9f9f9" />
    <path
       d="M 6.1,55.8 6,55.3 H 3.1 l 0.1,0.6 c 0.9,7.1 3.2,13.6 7,19.6 l 0.2,0.2 h 3.5 L 13.3,74.9 C 9.5,69.2 7,62.6 6.1,55.8 Z"
       id="path547"
       style="fill:#f9f9f9" />
    <path
       d="m 93.7,43.8 0.1,0.5 h 3 l -0.1,-0.6 c -1,-6.9 -3.4,-13.3 -7.1,-19.1 l -0.2,-0.2 h -3.5 l 0.6,0.8 c 3.7,5.5 6.2,11.9 7.2,18.6 z"
       id="path549"
       style="fill:#f9f9f9" />
    <path
       d="m 93.9,55.3 -0.1,0.5 c -0.9,6.8 -3.4,13.5 -7.2,19.1 L 86,75.7 h 3.5 l 0.2,-0.2 c 3.8,-5.9 6.2,-12.5 7,-19.6 l 0.1,-0.6 z"
       id="path551"
       style="fill:#f9f9f9" />
    <path
       d="m 74.1,13.2 0.1,0.1 h 5 l -1.3,-1 C 71.6,7.5 64,4.4 56.1,3.4 L 55.5,3.3 v 3 L 56,6.4 c 6.5,0.9 12.6,3.1 18.1,6.8 z"
       id="path553"
       style="fill:#f9f9f9" />
    <path
       d="m 21.9,12.3 -1.3,1 h 5 l 0.1,-0.1 C 31.3,9.5 37.4,7.3 44,6.4 l 0.5,-0.1 v -3 l -0.6,0.1 c -8,1 -15.6,4.1 -22,8.9 z"
       id="path555"
       style="fill:#f9f9f9" />
    <path
       d="M 74.6,86.9 C 69,90.6 62.6,93.1 55.9,94 l -0.5,0.1 v 3 L 56,97 c 8.1,-1.1 15.8,-4.2 22.3,-9.2 l 1.3,-1 z"
       id="path557"
       style="fill:#f9f9f9" />
    <path
       d="m 25.3,86.9 -0.2,-0.1 h -4.9 l 1.3,1 c 6.5,5 14.3,8.1 22.4,9.2 l 0.6,0.1 v -3 L 44,94 C 37.3,93.1 30.8,90.6 25.3,86.9 Z"
       id="path559"
       style="fill:#f9f9f9" />
    <polygon
       points="32.6,49.8 39.8,55.7 36.7,59.6 24.3,49.6 36.8,40.6 39.7,44.7 "
       id="polygon561"
       style="fill:#f9f9f9" />
    <polygon
       points="63.1,40.6 75.6,49.6 63.2,59.6 60.1,55.7 67.3,49.8 60.2,44.7 "
       id="polygon563"
       style="fill:#f9f9f9" />
    <rect
       x="47.700001"
       y="34"
       transform="matrix(0.9452,0.3264,-0.3264,0.9452,19.1192,-13.6479)"
       width="5"
       height="32.400002"
       id="rect565"
       style="fill:#f9f9f9" />
  </g>
  <g
     id="SvgjsG5001"
     featurekey="nameFeature-0"
     transform="matrix(1.68145,0,0,1.68145,117.80118,8.2062148)"
     fill="#ffffff"
     style="fill:#f9f9f9"
     inkscape:export-filename="logo-light.svg"
     inkscape:export-xdpi="96"
     inkscape:export-ydpi="96">
    <path
       d="m 22.8,24.84 q 1.72,1.08 2.62,2.64 0.9,1.56 0.9,3.48 0,4.52 -3.44,6.92 Q 20.56,39.56 16.6,40 H 16.44 Q 15.88,40 15.52,39.64 15.04,39.2 15.04,38.6 v -2.88 q 0,-0.52 0.36,-0.92 0.36,-0.4 0.88,-0.48 1.88,-0.2 2.92,-0.88 0.8,-0.48 1.08,-1.24 0.16,-0.44 0.16,-1.12 0,-0.44 -0.16,-0.76 -0.16,-0.32 -0.56,-0.6 -1.16,-0.8 -3,-1.36 l -0.64,-0.2 q -2,-0.56 -3.68,-0.92 -0.36,-0.08 -1.16,-0.28 L 10.8,26.84 Q 9.36,26.48 7.76,25.84 5.4,24.84 3.88,23.32 2.12,21.56 2.12,18.68 2.12,14.72 5.16,12.24 7.24,10.48 11,10 q 0.64,-0.08 1.1,0.36 0.46,0.44 0.46,1.04 v 2.88 q 0,0.52 -0.32,0.92 -0.32,0.4 -0.82,0.46 -0.5,0.06 -1.02,0.22 -1.16,0.44 -1.64,0.86 -0.48,0.42 -0.68,0.86 -0.2,0.68 -0.2,1.28 0,0.32 0.36,0.68 0.56,0.56 1.64,1 0.48,0.2 1.68,0.6 l 5,1.24 0.24,0.08 q 1.88,0.52 2.72,0.8 1.88,0.64 3.28,1.56 z M 16.12,15.8 q -0.48,-0.12 -0.78,-0.5 -0.3,-0.38 -0.3,-0.9 v -2.92 q 0,-0.64 0.52,-1.08 0.2,-0.2 0.52,-0.26 0.32,-0.06 0.6,-0.02 3.52,0.56 5.72,2.4 3,2.48 3.2,6.32 0.04,0.56 -0.38,1.02 -0.42,0.46 -1.02,0.46 h -3.12 q -0.52,0 -0.92,-0.36 -0.4,-0.36 -0.44,-0.88 -0.16,-1.04 -0.68,-1.72 -0.84,-1 -2.6,-1.52 -0.12,0 -0.16,-0.04 z m -4.68,18.36 q 0.48,0.08 0.8,0.48 0.32,0.4 0.32,0.88 v 2.96 q 0,0.64 -0.48,1.08 -0.4,0.32 -0.92,0.32 h -0.2 Q 7.24,39.32 4.84,37.44 1.72,34.96 1.32,30.52 1.24,29.88 1.68,29.42 2.12,28.96 2.72,28.96 h 3.16 q 0.56,0 0.96,0.38 0.4,0.38 0.44,0.94 0.12,2 1.96,3.08 0.84,0.48 2.2,0.8 z m 40.32,0.08 q 0.56,0 0.98,0.42 0.42,0.42 0.42,0.98 v 2.88 q 0,0.56 -0.42,0.98 -0.42,0.42 -0.98,0.42 H 30.28 q -0.56,0 -0.98,-0.42 -0.42,-0.42 -0.42,-0.98 V 35.6 q 0,-0.48 0.32,-0.88 L 34.92,27.8 Q 35.36,27.28 36,27.28 h 3.84 q 0.4,0 0.76,0.22 0.36,0.22 0.54,0.6 0.18,0.38 0.12,0.8 -0.06,0.42 -0.34,0.7 l -3.84,4.64 z m 0,-24.24 q 0.56,0 0.98,0.42 0.42,0.42 0.42,1.02 v 2.92 q 0,0.52 -0.32,0.92 l -5.72,6.84 q -0.4,0.52 -1.08,0.52 h -3.8 q -0.4,0 -0.76,-0.22 -0.36,-0.22 -0.56,-0.58 -0.32,-0.88 0.2,-1.52 l 3.84,-4.6 h -14.4 q -0.6,0 -1.02,-0.42 -0.42,-0.42 -0.42,-1.02 v -2.84 q 0,-0.6 0.42,-1.02 Q 29.96,10 30.56,10 Z m 32.16,1.04 q 2.44,0.92 4.4,2.96 4.2,4.24 4.2,10.82 0,6.58 -4.2,10.86 -1.96,2.04 -4.4,2.96 -2.52,1.04 -5.16,1.04 H 67.44 q -0.56,0 -0.98,-0.42 -0.42,-0.42 -0.42,-0.98 V 35.4 q 0,-0.6 0.42,-1.02 0.42,-0.42 0.98,-0.42 h 11.2 q 3.56,0 5.78,-2.6 2.22,-2.6 2.22,-6.52 0,-3.92 -2.22,-6.52 -2.22,-2.6 -5.78,-2.6 h -11.2 q -0.56,0 -0.98,-0.42 -0.42,-0.42 -0.42,-1.02 V 11.4 q 0,-0.56 0.42,-0.98 Q 66.88,10 67.44,10 h 11.32 q 2.64,0 5.16,1.04 z m 34.6,22.88 q 0.6,0 1,0.42 0.4,0.42 0.4,1.02 v 2.92 q 0,0.56 -0.4,0.98 -0.4,0.42 -1,0.42 H 98.76 q -0.56,0 -0.98,-0.42 -0.42,-0.42 -0.42,-0.98 v -2.92 q 0,-0.6 0.42,-1.02 0.42,-0.42 0.98,-0.42 z m -19.76,-6.2 q -0.56,0 -0.98,-0.42 -0.42,-0.42 -0.42,-0.98 v -3 q 0,-0.56 0.42,-0.98 0.42,-0.42 0.98,-0.42 h 17.96 q 0.6,0 1.02,0.42 0.42,0.42 0.42,0.98 v 3 q 0,0.56 -0.42,0.98 -0.42,0.42 -1.02,0.42 z M 118.52,10 q 0.6,0 1,0.42 0.4,0.42 0.4,0.98 v 2.92 q 0,0.6 -0.4,1.02 -0.4,0.42 -1,0.42 H 98.76 q -0.56,0 -0.98,-0.42 -0.42,-0.42 -0.42,-1.02 V 11.4 q 0,-0.56 0.42,-0.98 Q 98.2,10 98.76,10 Z m 31.2,0.64 q 0.44,0.6 0.16,1.32 l -10.96,27.08 q -0.16,0.4 -0.52,0.64 -0.36,0.24 -0.8,0.24 h -3.52 q -0.44,0 -0.8,-0.24 -0.36,-0.24 -0.52,-0.64 L 121.8,11.96 q -0.32,-0.68 0.12,-1.32 0.44,-0.64 1.16,-0.64 h 13.36 q 0.56,0 0.98,0.42 0.42,0.42 0.42,1.02 v 2.92 q 0,0.6 -0.42,1.02 -0.42,0.42 -0.98,0.42 h -6.72 l 6.12,15.4 8.04,-20.32 q 0.16,-0.4 0.52,-0.64 0.36,-0.24 0.8,-0.24 h 3.36 q 0.36,0 0.68,0.18 0.32,0.18 0.48,0.46 z"
       id="path568"
       style="fill:#f9f9f9" />
  </g>
</svg>
